<?xml version="1.0" standalone="no"?>
<!DOCTYPE svg PUBLIC "-//W3C//DTD SVG 20010904//EN"
 "http://www.w3.org/TR/2001/REC-SVG-20010904/DTD/svg10.dtd">
<svg version="1.0" xmlns="http://www.w3.org/2000/svg"
 width="275.000000pt" height="275.000000pt" viewBox="0 0 275.000000 275.000000"
 preserveAspectRatio="xMidYMid meet">

<g transform="translate(0.000000,275.000000) scale(0.100000,-0.100000)"
fill="#000000" stroke="none">
<path d="M26 2729 c3 -6 233 -317 511 -691 277 -373 506 -685 509 -693 4 -8
-199 -276 -502 -662 -279 -356 -511 -654 -517 -660 -7 -10 16 -13 109 -13
l119 0 625 786 c344 433 628 793 633 800 5 8 -135 206 -407 576 l-413 563
-337 3 c-247 2 -335 -1 -330 -9z"/>
<path d="M2341 2553 c-81 -104 -367 -465 -634 -803 l-486 -615 23 -30 c12 -16
195 -262 406 -545 210 -283 390 -523 399 -533 16 -16 43 -17 349 -15 l332 3
-515 700 c-284 385 -514 705 -513 712 2 6 228 296 503 644 275 348 506 641
513 651 13 17 8 18 -107 18 l-121 0 -149 -187z"/>
</g>
</svg>
